<svg width="574" height="33" viewBox="0 0 574 33" fill="none" xmlns="http://www.w3.org/2000/svg">
<path d="M0 3C0 1.34315 1.34315 0 3 0H571C572.657 0 574 1.34315 574 3V27C574 28.6569 572.657 30 571 30H3.00001C1.34315 30 0 28.6569 0 27V3Z" fill="white"/>
<g filter="url(#filter0_d_10_341)">
<path d="M102.351 3H517.849C519.7 3 521.2 3.8483 521.2 4.89474V25.1053C521.2 26.1517 519.7 27 517.849 27H102.351C100.5 27 99 26.1517 99 25.1053V4.89474C99 3.8483 100.5 3 102.351 3Z" fill="#89ADC8" fill-opacity="0.34902"/>
</g>
<g filter="url(#filter1_d_10_341)">
<path d="M100.212 3H250.439C251.108 3 251.65 3.8483 251.65 4.89474V25.1053C251.65 26.1517 251.108 27 250.439 27H100.212C99.5424 27 99 26.1517 99 25.1053V4.89474C99 3.8483 99.5424 3 100.212 3Z" fill="#394E70"/>
</g>
<path d="M34.5879 19.7H33.2051V14.1863C33.2051 14.0027 33.207 13.8191 33.2109 13.6355C33.2148 13.452 33.2188 13.2723 33.2227 13.0965C33.2305 12.9207 33.2402 12.7527 33.252 12.5926C33.1699 12.6824 33.0684 12.7801 32.9473 12.8855C32.8301 12.991 32.7051 13.1004 32.5723 13.2137L31.5879 13.9988L30.8965 13.1258L33.4395 11.1336H34.5879V19.7ZM43.207 15.4109C43.207 16.1023 43.1523 16.7215 43.043 17.2684C42.9375 17.8113 42.7695 18.2723 42.5391 18.6512C42.3086 19.0301 42.0078 19.3191 41.6367 19.5184C41.2656 19.7176 40.8164 19.8172 40.2891 19.8172C39.6289 19.8172 39.084 19.6434 38.6543 19.2957C38.2246 18.9441 37.9062 18.4402 37.6992 17.784C37.4922 17.1238 37.3887 16.3328 37.3887 15.4109C37.3887 14.4891 37.4824 13.7 37.6699 13.0438C37.8613 12.3836 38.1699 11.8777 38.5957 11.5262C39.0215 11.1746 39.5859 10.9988 40.2891 10.9988C40.9531 10.9988 41.5 11.1746 41.9297 11.5262C42.3633 11.8738 42.6836 12.3777 42.8906 13.0379C43.1016 13.6941 43.207 14.4852 43.207 15.4109ZM38.7773 15.4109C38.7773 16.1336 38.8242 16.7371 38.918 17.2215C39.0156 17.7059 39.1758 18.0691 39.3984 18.3113C39.6211 18.5496 39.918 18.6688 40.2891 18.6688C40.6602 18.6688 40.957 18.5496 41.1797 18.3113C41.4023 18.073 41.5625 17.7117 41.6602 17.2273C41.7617 16.743 41.8125 16.1375 41.8125 15.4109C41.8125 14.6922 41.7637 14.0906 41.666 13.6063C41.5684 13.1219 41.4082 12.7586 41.1855 12.5164C40.9629 12.2703 40.6641 12.1473 40.2891 12.1473C39.9141 12.1473 39.6152 12.2703 39.3926 12.5164C39.1738 12.7586 39.0156 13.1219 38.918 13.6063C38.8242 14.0906 38.7773 14.6922 38.7773 15.4109ZM50.0742 15.4109C50.0742 16.1023 50.0195 16.7215 49.9102 17.2684C49.8047 17.8113 49.6367 18.2723 49.4062 18.6512C49.1758 19.0301 48.875 19.3191 48.5039 19.5184C48.1328 19.7176 47.6836 19.8172 47.1562 19.8172C46.4961 19.8172 45.9512 19.6434 45.5215 19.2957C45.0918 18.9441 44.7734 18.4402 44.5664 17.784C44.3594 17.1238 44.2559 16.3328 44.2559 15.4109C44.2559 14.4891 44.3496 13.7 44.5371 13.0438C44.7285 12.3836 45.0371 11.8777 45.4629 11.5262C45.8887 11.1746 46.4531 10.9988 47.1562 10.9988C47.8203 10.9988 48.3672 11.1746 48.7969 11.5262C49.2305 11.8738 49.5508 12.3777 49.7578 13.0379C49.9688 13.6941 50.0742 14.4852 50.0742 15.4109ZM45.6445 15.4109C45.6445 16.1336 45.6914 16.7371 45.7852 17.2215C45.8828 17.7059 46.043 18.0691 46.2656 18.3113C46.4883 18.5496 46.7852 18.6688 47.1562 18.6688C47.5273 18.6688 47.8242 18.5496 48.0469 18.3113C48.2695 18.073 48.4297 17.7117 48.5273 17.2273C48.6289 16.743 48.6797 16.1375 48.6797 15.4109C48.6797 14.6922 48.6309 14.0906 48.5332 13.6063C48.4355 13.1219 48.2754 12.7586 48.0527 12.5164C47.8301 12.2703 47.5312 12.1473 47.1562 12.1473C46.7812 12.1473 46.4824 12.2703 46.2598 12.5164C46.041 12.7586 45.8828 13.1219 45.7852 13.6063C45.6914 14.0906 45.6445 14.6922 45.6445 15.4109ZM55.1895 19.7H53.8066V14.1863C53.8066 14.0027 53.8086 13.8191 53.8125 13.6355C53.8164 13.452 53.8203 13.2723 53.8242 13.0965C53.832 12.9207 53.8418 12.7527 53.8535 12.5926C53.7715 12.6824 53.6699 12.7801 53.5488 12.8855C53.4316 12.991 53.3066 13.1004 53.1738 13.2137L52.1895 13.9988L51.498 13.1258L54.041 11.1336H55.1895V19.7Z" fill="#394E70"/>
<path d="M113.013 11.1613C113.934 11.1613 114.606 11.3501 115.029 11.7277C115.452 12.1053 115.664 12.6343 115.664 13.3146C115.664 13.6239 115.615 13.9185 115.518 14.1984C115.423 14.4751 115.267 14.7209 115.049 14.9357C114.831 15.1473 114.543 15.315 114.185 15.4387C113.83 15.5624 113.392 15.6242 112.871 15.6242H112.109V18.3H110.938V11.1613H113.013ZM112.935 12.133H112.109V14.6477H112.749C113.117 14.6477 113.429 14.6053 113.687 14.5207C113.944 14.4328 114.139 14.2945 114.272 14.1057C114.406 13.9169 114.473 13.6678 114.473 13.3586C114.473 12.9452 114.347 12.6376 114.097 12.4357C113.849 12.2339 113.462 12.133 112.935 12.133ZM119.712 12.7922C119.803 12.7922 119.902 12.7971 120.01 12.8068C120.117 12.8166 120.21 12.8296 120.288 12.8459L120.181 13.9201C120.112 13.9006 120.028 13.8859 119.927 13.8762C119.829 13.8664 119.741 13.8615 119.663 13.8615C119.458 13.8615 119.263 13.8957 119.077 13.9641C118.892 14.0292 118.727 14.1301 118.584 14.2668C118.441 14.4003 118.328 14.5679 118.247 14.7697C118.166 14.9715 118.125 15.2059 118.125 15.4729V18.3H116.973V12.8947H117.871L118.027 13.8469H118.081C118.188 13.6548 118.322 13.479 118.481 13.3195C118.641 13.16 118.823 13.0331 119.028 12.9387C119.237 12.841 119.465 12.7922 119.712 12.7922ZM126.074 15.5852C126.074 16.0344 126.016 16.4331 125.898 16.7814C125.781 17.1298 125.61 17.4243 125.386 17.6652C125.161 17.9029 124.891 18.0852 124.575 18.2121C124.259 18.3358 123.903 18.3977 123.506 18.3977C123.135 18.3977 122.795 18.3358 122.485 18.2121C122.176 18.0852 121.908 17.9029 121.68 17.6652C121.455 17.4243 121.281 17.1298 121.157 16.7814C121.034 16.4331 120.972 16.0344 120.972 15.5852C120.972 14.9895 121.074 14.4849 121.279 14.0715C121.488 13.6548 121.784 13.3374 122.168 13.1193C122.552 12.9012 123.009 12.7922 123.54 12.7922C124.038 12.7922 124.478 12.9012 124.858 13.1193C125.239 13.3374 125.537 13.6548 125.752 14.0715C125.967 14.4882 126.074 14.9927 126.074 15.5852ZM122.153 15.5852C122.153 15.979 122.201 16.3159 122.295 16.5959C122.393 16.8758 122.542 17.0907 122.744 17.2404C122.946 17.3869 123.206 17.4602 123.525 17.4602C123.844 17.4602 124.105 17.3869 124.307 17.2404C124.508 17.0907 124.657 16.8758 124.751 16.5959C124.845 16.3159 124.893 15.979 124.893 15.5852C124.893 15.1913 124.845 14.8576 124.751 14.5842C124.657 14.3075 124.508 14.0975 124.307 13.9543C124.105 13.8078 123.843 13.7346 123.521 13.7346C123.045 13.7346 122.699 13.8941 122.48 14.2131C122.262 14.5321 122.153 14.9895 122.153 15.5852ZM129.209 18.3977C128.564 18.3977 128.047 18.1633 127.656 17.6945C127.269 17.2225 127.075 16.5275 127.075 15.6096C127.075 14.6818 127.272 13.9803 127.666 13.5051C128.063 13.0298 128.586 12.7922 129.233 12.7922C129.507 12.7922 129.746 12.8296 129.951 12.9045C130.156 12.9761 130.332 13.0738 130.479 13.1975C130.628 13.3212 130.755 13.4595 130.859 13.6125H130.913C130.897 13.5116 130.877 13.3667 130.854 13.1779C130.835 12.9859 130.825 12.8085 130.825 12.6457V10.7023H131.978V18.3H131.079L130.874 17.5627H130.825C130.728 17.7189 130.604 17.8605 130.454 17.9875C130.308 18.1112 130.132 18.2105 129.927 18.2854C129.725 18.3602 129.486 18.3977 129.209 18.3977ZM129.531 17.465C130.023 17.465 130.369 17.3234 130.571 17.0402C130.773 16.757 130.877 16.3322 130.884 15.7658V15.6145C130.884 15.009 130.786 14.5451 130.591 14.2229C130.396 13.8973 130.039 13.7346 129.521 13.7346C129.108 13.7346 128.792 13.9022 128.574 14.2375C128.359 14.5695 128.252 15.0334 128.252 15.6291C128.252 16.2248 128.359 16.6805 128.574 16.9963C128.792 17.3088 129.111 17.465 129.531 17.465ZM138.335 12.8947V18.3H137.432L137.275 17.5725H137.212C137.098 17.758 136.953 17.9126 136.777 18.0363C136.602 18.1568 136.406 18.2463 136.191 18.3049C135.977 18.3667 135.75 18.3977 135.513 18.3977C135.106 18.3977 134.757 18.3293 134.468 18.1926C134.181 18.0526 133.962 17.8378 133.809 17.548C133.656 17.2583 133.579 16.884 133.579 16.425V12.8947H134.731V16.2102C134.731 16.6301 134.816 16.9442 134.985 17.1525C135.158 17.3609 135.425 17.465 135.786 17.465C136.134 17.465 136.411 17.3934 136.616 17.2502C136.821 17.107 136.966 16.8954 137.051 16.6154C137.139 16.3355 137.183 15.9921 137.183 15.5852V12.8947H138.335ZM142.158 18.3977C141.647 18.3977 141.204 18.2984 140.83 18.0998C140.456 17.9012 140.168 17.5969 139.966 17.1867C139.764 16.7766 139.663 16.2557 139.663 15.6242C139.663 14.9667 139.774 14.4296 139.995 14.0129C140.216 13.5962 140.522 13.2886 140.913 13.09C141.307 12.8915 141.758 12.7922 142.266 12.7922C142.588 12.7922 142.879 12.8247 143.14 12.8898C143.403 12.9517 143.626 13.0282 143.809 13.1193L143.467 14.0373C143.268 13.9559 143.065 13.8876 142.856 13.8322C142.648 13.7769 142.448 13.7492 142.256 13.7492C141.94 13.7492 141.676 13.8192 141.465 13.9592C141.257 14.0992 141.1 14.3075 140.996 14.5842C140.895 14.8609 140.845 15.2043 140.845 15.6145C140.845 16.0116 140.897 16.3469 141.001 16.6203C141.105 16.8905 141.26 17.0956 141.465 17.2355C141.67 17.3723 141.922 17.4406 142.222 17.4406C142.518 17.4406 142.783 17.4048 143.018 17.3332C143.252 17.2616 143.473 17.1688 143.682 17.0549V18.051C143.477 18.1682 143.257 18.2544 143.022 18.3098C142.788 18.3684 142.5 18.3977 142.158 18.3977ZM146.963 17.4699C147.113 17.4699 147.261 17.4569 147.407 17.4309C147.554 17.4016 147.687 17.3674 147.808 17.3283V18.1975C147.681 18.2528 147.516 18.3 147.314 18.3391C147.113 18.3781 146.903 18.3977 146.685 18.3977C146.379 18.3977 146.104 18.3472 145.859 18.2463C145.615 18.1421 145.422 17.9647 145.278 17.7141C145.135 17.4634 145.063 17.1167 145.063 16.674V13.7687H144.326V13.2561L145.117 12.8508L145.493 11.6936H146.216V12.8947H147.764V13.7687H146.216V16.6594C146.216 16.9328 146.284 17.1363 146.421 17.2697C146.558 17.4032 146.738 17.4699 146.963 17.4699ZM157.578 18.3H156.138L152.642 12.6018H152.598C152.611 12.7938 152.622 12.9973 152.632 13.2121C152.645 13.427 152.655 13.6483 152.661 13.8762C152.671 14.104 152.679 14.3352 152.686 14.5695V18.3H151.621V11.1613H153.052L156.543 16.8205H156.577C156.571 16.6545 156.562 16.4641 156.553 16.2492C156.543 16.0344 156.533 15.813 156.523 15.5852C156.517 15.354 156.512 15.1311 156.509 14.9162V11.1613H157.578V18.3ZM161.455 12.7922C162.139 12.7922 162.655 12.9436 163.003 13.2463C163.354 13.549 163.53 14.021 163.53 14.6623V18.3H162.715L162.495 17.5334H162.456C162.303 17.7287 162.145 17.8898 161.982 18.0168C161.82 18.1437 161.631 18.2382 161.416 18.3C161.204 18.3651 160.946 18.3977 160.64 18.3977C160.317 18.3977 160.029 18.3391 159.775 18.2219C159.521 18.1014 159.321 17.9191 159.175 17.675C159.028 17.4309 158.955 17.1216 158.955 16.7473C158.955 16.1906 159.162 15.7723 159.575 15.4924C159.992 15.2124 160.62 15.0578 161.46 15.0285L162.397 14.9943V14.7111C162.397 14.3368 162.31 14.0699 162.134 13.9104C161.961 13.7508 161.717 13.6711 161.401 13.6711C161.131 13.6711 160.869 13.7102 160.615 13.7883C160.361 13.8664 160.114 13.9624 159.873 14.0764L159.502 13.2658C159.766 13.1258 160.065 13.0119 160.4 12.924C160.739 12.8361 161.09 12.7922 161.455 12.7922ZM162.393 15.717L161.694 15.7414C161.121 15.7609 160.719 15.8586 160.488 16.0344C160.257 16.2102 160.142 16.451 160.142 16.757C160.142 17.024 160.221 17.2193 160.381 17.343C160.54 17.4634 160.75 17.5236 161.011 17.5236C161.408 17.5236 161.737 17.4113 161.997 17.1867C162.261 16.9589 162.393 16.6252 162.393 16.1857V15.717ZM171.245 12.7922C171.851 12.7922 172.306 12.9484 172.612 13.2609C172.922 13.5734 173.076 14.0747 173.076 14.7648V18.3H171.929V14.9699C171.929 14.5598 171.849 14.2505 171.689 14.0422C171.53 13.8339 171.287 13.7297 170.962 13.7297C170.506 13.7297 170.177 13.8762 169.976 14.1691C169.777 14.4589 169.678 14.8804 169.678 15.4338V18.3H168.53V14.9699C168.53 14.6965 168.494 14.4686 168.423 14.2863C168.354 14.1008 168.249 13.9624 168.105 13.8713C167.962 13.7769 167.782 13.7297 167.563 13.7297C167.248 13.7297 166.995 13.8013 166.807 13.9445C166.621 14.0878 166.488 14.2993 166.406 14.5793C166.325 14.856 166.284 15.1962 166.284 15.5998V18.3H165.137V12.8947H166.03L166.191 13.6223H166.255C166.366 13.4335 166.502 13.2788 166.665 13.1584C166.831 13.0347 167.015 12.9436 167.217 12.885C167.419 12.8231 167.629 12.7922 167.847 12.7922C168.25 12.7922 168.59 12.8638 168.867 13.007C169.144 13.147 169.351 13.3618 169.487 13.6516H169.575C169.744 13.3586 169.98 13.1421 170.283 13.0021C170.586 12.8622 170.907 12.7922 171.245 12.7922ZM176.831 12.7922C177.313 12.7922 177.726 12.8915 178.071 13.09C178.416 13.2886 178.682 13.5702 178.867 13.9348C179.053 14.2993 179.146 14.7355 179.146 15.2434V15.8586H175.537C175.55 16.3827 175.69 16.7863 175.957 17.0695C176.227 17.3527 176.605 17.4943 177.09 17.4943C177.435 17.4943 177.744 17.4618 178.018 17.3967C178.294 17.3283 178.579 17.229 178.872 17.0988V18.0314C178.602 18.1584 178.327 18.2512 178.047 18.3098C177.767 18.3684 177.432 18.3977 177.041 18.3977C176.51 18.3977 176.043 18.2951 175.64 18.09C175.239 17.8817 174.925 17.5725 174.697 17.1623C174.473 16.7521 174.36 16.2427 174.36 15.634C174.36 15.0285 174.463 14.5142 174.668 14.091C174.873 13.6678 175.161 13.3456 175.532 13.1242C175.903 12.9029 176.336 12.7922 176.831 12.7922ZM176.831 13.6564C176.47 13.6564 176.177 13.7736 175.952 14.008C175.731 14.2424 175.601 14.5858 175.562 15.0383H178.022C178.019 14.7681 177.974 14.5288 177.886 14.3205C177.801 14.1122 177.671 13.9494 177.495 13.8322C177.323 13.715 177.101 13.6564 176.831 13.6564Z" fill="white"/>
<path d="M525 5C525 3.89543 525.895 3 527 3H534C535.105 3 536 3.89543 536 5V25C536 26.1046 535.105 27 534 27H527C525.895 27 525 26.1046 525 25V5Z" fill="#C41E26"/>
<path d="M68 3.5H91.7598C93.1405 3.5 94.2598 4.61929 94.2598 6V24C94.2598 25.3807 93.1405 26.5 91.7598 26.5H68C66.6193 26.5 65.5 25.3807 65.5 24V6C65.5 4.61929 66.6193 3.5 68 3.5Z" fill="#D7DBE2" stroke="#394E70"/>
<g clip-path="url(#clip0_10_341)">
<mask id="mask0_10_341" style="mask-type:alpha" maskUnits="userSpaceOnUse" x="70" y="5" width="20" height="20">
<rect x="70" y="5" width="20" height="20" fill="white"/>
</mask>
<g mask="url(#mask0_10_341)">
<circle cx="80" cy="15" r="10" fill="#394E70"/>
<circle cx="80" cy="15" r="8.85625" fill="white" stroke="#394E70" stroke-width="1.0878" stroke-miterlimit="10"/>
</g>
</g>
<path d="M78 10.58L82.672 15.1025L78 19.625" stroke="#405271" stroke-width="2" stroke-miterlimit="10" stroke-linecap="round"/>
<path d="M542 3.5H565.76C567.14 3.5 568.26 4.61929 568.26 6V24C568.26 25.3807 567.14 26.5 565.76 26.5H542C540.619 26.5 539.5 25.3807 539.5 24V6C539.5 4.61929 540.619 3.5 542 3.5Z" fill="#D7DBE2" stroke="#394E70"/>
<g clip-path="url(#clip1_10_341)">
<mask id="mask1_10_341" style="mask-type:alpha" maskUnits="userSpaceOnUse" x="544" y="5" width="20" height="20">
<rect x="544" y="5" width="20" height="20" fill="white"/>
</mask>
<g mask="url(#mask1_10_341)">
<circle cx="554" cy="15" r="10" fill="#394E70"/>
<circle cx="554" cy="15" r="8.85625" fill="white" stroke="#394E70" stroke-width="1.0878" stroke-miterlimit="10"/>
</g>
</g>
<path d="M552 10.58L556.672 15.1025L552 19.625" stroke="#405271" stroke-width="2" stroke-miterlimit="10" stroke-linecap="round"/>
<path d="M7.5 11.5H20.5" stroke="#394E70" stroke-width="2" stroke-linecap="round"/>
<path d="M7.5 15.5H20.5" stroke="#394E70" stroke-width="2" stroke-linecap="round"/>
<path d="M7.5 19.5H20.5" stroke="#394E70" stroke-width="2" stroke-linecap="round"/>
<defs>
<filter id="filter0_d_10_341" x="96" y="3" width="428.2" height="30" filterUnits="userSpaceOnUse" color-interpolation-filters="sRGB">
<feFlood flood-opacity="0" result="BackgroundImageFix"/>
<feColorMatrix in="SourceAlpha" type="matrix" values="0 0 0 0 0 0 0 0 0 0 0 0 0 0 0 0 0 0 127 0" result="hardAlpha"/>
<feOffset dy="3"/>
<feGaussianBlur stdDeviation="1.5"/>
<feColorMatrix type="matrix" values="0 0 0 0 0 0 0 0 0 0 0 0 0 0 0 0 0 0 0.160784 0"/>
<feBlend mode="normal" in2="BackgroundImageFix" result="effect1_dropShadow_10_341"/>
<feBlend mode="normal" in="SourceGraphic" in2="effect1_dropShadow_10_341" result="shape"/>
</filter>
<filter id="filter1_d_10_341" x="96" y="3" width="158.65" height="30" filterUnits="userSpaceOnUse" color-interpolation-filters="sRGB">
<feFlood flood-opacity="0" result="BackgroundImageFix"/>
<feColorMatrix in="SourceAlpha" type="matrix" values="0 0 0 0 0 0 0 0 0 0 0 0 0 0 0 0 0 0 127 0" result="hardAlpha"/>
<feOffset dy="3"/>
<feGaussianBlur stdDeviation="1.5"/>
<feColorMatrix type="matrix" values="0 0 0 0 0 0 0 0 0 0 0 0 0 0 0 0 0 0 0.160784 0"/>
<feBlend mode="normal" in2="BackgroundImageFix" result="effect1_dropShadow_10_341"/>
<feBlend mode="normal" in="SourceGraphic" in2="effect1_dropShadow_10_341" result="shape"/>
</filter>
<clipPath id="clip0_10_341">
<rect width="20" height="20" fill="white" transform="translate(70 5)"/>
</clipPath>
<clipPath id="clip1_10_341">
<rect width="20" height="20" fill="white" transform="translate(544 5)"/>
</clipPath>
</defs>
</svg>
