<?xml version="1.0" encoding="utf-8"?>
<!-- Generator: Adobe Illustrator 26.0.3, SVG Export Plug-In . SVG Version: 6.00 Build 0)  -->
<svg version="1.1" id="Layer_1" xmlns="http://www.w3.org/2000/svg" xmlns:xlink="http://www.w3.org/1999/xlink" x="0px" y="0px"
	 viewBox="0 0 889.7 282.4" style="enable-background:new 0 0 889.7 282.4;" xml:space="preserve">
<style type="text/css">
	.st0{fill:#FFFFFF;}
</style>
<path class="st0" d="M0,147.4h36.2V2H0V147.4z M180.8,2v88.9L103.2,2H70v145.4h36.2V54.3l80.3,93.1h30.4V2H180.8z M360.6,2v88.9
	L283.1,2h-33.2v145.4h36.2V54.3l80.3,93.1h30.4V2H360.6z M446.3,22.4c-15.4,14.9-23.1,32.4-23.1,52.4c0,20.3,7.7,37.8,23.2,52.6
	c15.5,14.7,35.6,22.1,60.2,22.1c24.4,0,44.3-7.4,59.9-22.2c15.6-14.8,23.3-32.3,23.3-52.5c0-19.9-7.7-37.3-23-52.3
	C551.6,7.5,531.5,0,506.7,0C481.8,0,461.7,7.5,446.3,22.4 M473.3,107.1c-8.4-8.2-12.6-18.9-12.6-32.2c0-13.3,4.2-24.1,12.6-32.3
	c8.4-8.1,19.6-12.2,33.4-12.2c13.8,0,24.9,4.1,33.2,12.2c8.4,8.2,12.6,18.9,12.6,32.3c0,13.4-4.2,24.1-12.6,32.2
	c-8.4,8.2-19.5,12.3-33.2,12.3S481.8,115.2,473.3,107.1 M700.2,2l-36.4,83L625.2,2h-39.5l70.5,147.4H672L739.1,2L700.2,2z M781.2,2
	l-58.6,145.4h38.4l10.9-28.8h65l12,28.8h38.9L823.3,2H781.2z M781.4,93.3l21.4-56.5l23.5,56.5L781.4,93.3z"/>
<path class="st0" d="M5.9,205.5h29v3.5H10v23.3h22.8v3.5H10v28.4H5.9V205.5z"/>
<path class="st0" d="M78.9,242.8c0,15.7-10.7,22.3-20,22.3c-10.8,0-19.1-8.4-19.1-21.5c0-14.4,9.4-22.2,19.8-22.2
	C71,221.4,78.9,230,78.9,242.8z M43.9,243.3c0,10.5,6.7,18.3,15.2,18.3c8.7,0,15.6-7.8,15.6-18.5c0-7.7-4.4-18.3-15.3-18.3
	C48.8,224.8,43.9,234.4,43.9,243.3L43.9,243.3z"/>
<path class="st0" d="M125.2,242.8c0,15.7-10.7,22.3-20,22.3c-10.8,0-19.1-8.4-19.1-21.5c0-14.4,9.4-22.2,19.8-22.2
	C117.3,221.4,125.2,230,125.2,242.8z M90.2,243.3c0,10.5,6.7,18.3,15.2,18.3c8.7,0,15.6-7.8,15.6-18.5c0-7.7-4.4-18.3-15.3-18.3
	C95,224.8,90.2,234.4,90.2,243.3L90.2,243.3z"/>
<path class="st0" d="M169,202.3v52c0,3.1,0.2,6.8,0.4,9.7h-3.7l-0.3-7.9h-0.2c-2.2,4.6-7.1,8.9-14.9,8.9c-10.3,0-18-8.6-18-21.1
	c-0.1-13.9,8.5-22.6,18.8-22.6c7.2,0,11.7,3.7,13.7,7.3h0.2v-26.4H169z M164.9,238.9c0-1.3-0.2-2.6-0.4-3.8
	c-1.5-6-6.9-10.3-13.1-10.3c-9.1,0-14.9,7.9-14.9,18.8c0,9.4,4.7,18,14.6,18c6,0,11.6-3.9,13.4-10.9c0.3-1.1,0.4-2.3,0.4-3.5
	L164.9,238.9z"/>
<path class="st0" d="M202.3,206.2c4.1-0.8,8.3-1.2,12.5-1.1c7,0,12.3,1.7,15.5,5c3,3,4.7,7.2,4.5,11.5c0,5-1.5,8.8-4.1,11.7
	c-3.7,4.4-10.1,6.6-17.2,6.6c-2.4,0.1-4.8-0.1-7.1-0.7v25h-4.1L202.3,206.2z M206.4,235.4c2.4,0.6,5,0.9,7.5,0.9
	c10.5,0,16.8-5.1,16.8-14.5s-6.7-13.3-16-13.3c-2.8,0-5.5,0.2-8.3,0.7L206.4,235.4z"/>
<path class="st0" d="M244.1,234.9c0-4.2-0.2-8.5-0.4-12.5h3.8l0.2,8.4h0.2c1.8-5.2,6.2-9.4,11.9-9.4c0.6,0,1.1,0.1,1.7,0.2v4
	c-0.7-0.2-1.3-0.2-2-0.2c-5.7,0-9.8,5-11,11.7c-0.2,1.3-0.3,2.7-0.4,4v23H244L244.1,234.9z"/>
<path class="st0" d="M304.6,242.8c0,15.7-10.7,22.3-20,22.3c-10.8,0-19.1-8.4-19.1-21.5c0-14.4,9.4-22.2,19.8-22.2
	C296.8,221.4,304.6,230,304.6,242.8z M269.6,243.3c0,10.5,6.7,18.3,15.2,18.3c8.7,0,15.6-7.8,15.6-18.5c0-7.7-4.4-18.3-15.3-18.3
	C274.5,224.8,269.6,234.4,269.6,243.3L269.6,243.3z"/>
<path class="st0" d="M344,262.3c-3.8,1.9-8,2.8-12.2,2.8c-12.1,0-20.1-8.8-20.1-21.4c0-13.2,9.1-22.3,21.6-22.3
	c5.1,0,9.3,1.5,11,2.6l-1.5,3.4c-3-1.6-6.5-2.5-9.9-2.4c-11.2,0-17,8.6-17,18.5c0,10.9,6.9,18,16.5,18c3.6,0,7.2-0.8,10.4-2.4
	L344,262.3z"/>
<path class="st0" d="M354.6,242.8c0,13.4,7.3,18.6,15.9,18.6c6.1,0,9.2-1.2,11.6-2.4l1,3.3c-1.6,0.9-5.8,2.7-13.2,2.7
	c-12,0-19.5-8.8-19.5-21.1c0-13.9,8-22.6,18.8-22.6c13.7,0,16.3,12.9,16.3,18.9c0,0.8,0,1.7-0.2,2.5L354.6,242.8z M381.2,239.5
	c0.1-5.8-2.3-14.7-12.5-14.7c-9.2,0-13.2,8.3-13.9,14.7H381.2z"/>
<path class="st0" d="M394.5,258.6c2.8,1.8,6.1,2.8,9.4,2.9c6.6,0,9.8-3.6,9.8-7.9c0-4.6-2.8-7-8.8-9.5c-6.9-2.6-10.6-6.4-10.6-11.4
	c0-6,4.7-11.3,12.9-11.3c3.3-0.1,6.5,0.8,9.2,2.6l-1.7,3.4c-2.4-1.7-5.3-2.6-8.3-2.5c-5.3,0-8.1,3.4-8.1,7.2c0,4.4,3,6.3,8.6,8.6
	c6.8,2.6,10.8,6,10.8,12.4c0,7.1-5.6,12-14.1,12c-3.7,0-7.4-1-10.6-3L394.5,258.6z"/>
<path class="st0" d="M427,258.6c2.8,1.8,6.1,2.8,9.4,2.9c6.6,0,9.8-3.6,9.8-7.9c0-4.6-2.8-7-8.8-9.5c-6.9-2.6-10.6-6.4-10.6-11.4
	c0-6,4.7-11.3,12.9-11.3c3.3-0.1,6.5,0.8,9.2,2.6l-1.7,3.4c-2.4-1.7-5.3-2.6-8.3-2.5c-5.3,0-8.1,3.4-8.1,7.2c0,4.4,3,6.3,8.6,8.6
	c6.8,2.6,10.8,6,10.8,12.4c0,7.1-5.6,12-14.1,12c-3.7,0-7.4-1-10.6-3L427,258.6z"/>
<path class="st0" d="M466.5,210.4c0.1,1.9-1.3,3.5-3.2,3.6h-0.3c-1.9-0.1-3.3-1.6-3.2-3.5v-0.1c-0.1-1.9,1.5-3.6,3.4-3.6
	c1.9,0,3.4,1.6,3.3,3.5c0,0,0,0,0,0C466.6,210.3,466.5,210.4,466.5,210.4z M461.2,264.1v-41.8h4.1v41.8H461.2z"/>
<path class="st0" d="M479.4,232.4c0-3.8-0.2-6.7-0.3-10h3.8l0.3,7.6h0.2c2.8-5.4,8.4-8.7,14.4-8.5c4,0,14.5,2,14.5,17.7v25.1h-4.1
	v-24.7c0-7.6-3-14.5-11.6-14.5c-5.8,0.1-10.9,4-12.5,9.6c-0.4,1.2-0.6,2.5-0.6,3.8v25.9h-4.1L479.4,232.4z"/>
<path class="st0" d="M559.3,258c0,10.7-2.2,16-5.7,19.3c-3.8,3.7-9.5,5-14.2,5s-10.1-1.2-13.2-3.6l1.5-3.3c3.7,2.3,8,3.5,12.4,3.5
	c8.8,0,15.1-4.6,15.1-17V256H555c-2.2,4.3-7,8.1-14.5,8.1c-10.5,0-17.9-9.1-17.9-20.5c0-14.5,9.6-22.2,18.8-22.2
	c8.3,0,12.4,4.5,14.1,8h0.2l0.2-7h3.8c-0.2,3.1-0.3,6.4-0.3,10.8V258z M555.2,238.4c0-1.4-0.2-2.7-0.5-4c-1.7-5-6.2-9.6-13-9.6
	c-8.9,0-15,7.3-15,18.4c0,9.4,5,17.5,14.8,17.5c5.9,0,11.1-3.8,12.9-9.4c0.5-1.4,0.8-2.9,0.8-4.4L555.2,238.4z"/>
<path class="st0" d="M590.6,257.6c3.8,2.5,8.3,3.9,12.9,3.9c8.7,0,14.1-5,14.1-12.2c0-6.6-3.4-10.4-11.8-13.8
	c-9.5-3.3-15.2-8.2-15.2-16.2c0-8.6,7.1-14.9,17.1-14.9c5.5,0,9.7,1.5,11.7,2.8l-1.5,3.5c-3.1-1.9-6.7-2.9-10.4-2.8
	c-9.5,0-12.7,6.1-12.7,10.7c0,6.5,3.8,9.8,12.2,13.1c9.7,3.9,14.8,8.3,14.8,17.1c0,8.5-6.1,16.2-18.6,16.2c-5,0-11-1.7-14-4
	L590.6,257.6z"/>
<path class="st0" d="M668.9,242.8c0,15.7-10.7,22.3-20,22.3c-10.8,0-19.2-8.4-19.2-21.5c0-14.4,9.4-22.2,19.8-22.2
	C661.1,221.4,668.9,230,668.9,242.8z M633.9,243.3c0,10.5,6.7,18.3,15.2,18.3c8.7,0,15.6-7.8,15.6-18.5c0-7.7-4.3-18.3-15.3-18.3
	C638.8,224.8,633.9,234.4,633.9,243.3L633.9,243.3z"/>
<path class="st0" d="M679.8,264.1v-38.5h-6v-3.3h6v-2.3c0-6.5,1.2-11.7,4.6-15.1c2.5-2.4,5.8-3.7,9.2-3.7c2.2,0,4.3,0.4,6.3,1.4
	l-1.3,3.3c-1.6-0.9-3.5-1.3-5.3-1.2c-7.7,0-9.4,7.1-9.4,15.1v2.4h11.2v3.3h-11.2v38.5H679.8z"/>
<path class="st0" d="M708.9,213.1v9.2h11.9v3.3h-11.9v27.1c0,5.3,1.7,8.7,6.1,8.7c1.6,0,3.2-0.2,4.8-0.7l0.5,3.2
	c-1.9,0.7-3.8,1.1-5.8,1c-2.7,0.2-5.4-0.9-7.1-3c-1.9-2.2-2.6-5.7-2.6-9.9v-26.5h-7v-3.3h7.1v-7.7L708.9,213.1z"/>
<path class="st0" d="M730.2,222.3l7,23.8c1.5,4.9,2.7,9,3.6,13.1h0.3c1-3.8,2.4-8.3,4.2-13.1l8.4-23.8h3.9l8,23.6
	c1.7,5,3,9.3,4.1,13.2h0.2c0.9-3.9,2.2-8.1,3.7-13.1l7.5-23.7h4.3l-14,41.8h-3.7l-7.8-23.2c-1.7-4.7-3.2-9.4-4.3-14.3h-0.2
	c-1.2,4.9-2.7,9.6-4.5,14.3l-8.3,23.1h-3.7L726,222.3L730.2,222.3z"/>
<path class="st0" d="M819.8,254.2c0,3.3,0.2,6.6,0.6,9.9h-3.8l-0.6-6h-0.2c-3,4.5-8,7.1-13.3,7c-8.4,0-12.3-5.9-12.3-11.5
	c0-9.7,8.5-15.5,25.5-15.3v-1.1c0-4.2-0.8-12.4-10.7-12.4c-3.7-0.1-7.4,1-10.4,3.1l-1.3-3.1c3.6-2.3,7.9-3.6,12.2-3.6
	c12.1,0,14.4,9,14.4,16.5L819.8,254.2z M815.7,241.8c-9.1-0.3-21.2,1.1-21.2,11.1c0,6,4,8.7,8.3,8.7c5.5,0.2,10.5-3.2,12.4-8.3
	c0.3-0.8,0.4-1.7,0.4-2.5L815.7,241.8z"/>
<path class="st0" d="M833.4,234.9c0-4.2-0.2-8.5-0.3-12.5h3.8l0.2,8.4h0.2c1.8-5.2,6.2-9.4,11.9-9.4c0.6,0,1.1,0.1,1.7,0.2v4
	c-0.7-0.1-1.3-0.2-2-0.2c-5.7,0-9.8,5-11,11.7c-0.2,1.3-0.3,2.7-0.3,4v23h-4.1V234.9z"/>
<path class="st0" d="M858.8,242.8c0,13.4,7.3,18.6,15.9,18.6c6.1,0,9.2-1.2,11.6-2.4l1,3.3c-1.6,0.9-5.8,2.7-13.1,2.7
	c-12,0-19.5-8.8-19.5-21.1c0-13.9,8-22.6,18.8-22.6c13.7,0,16.3,12.9,16.3,18.9c0,0.8,0,1.7-0.2,2.5L858.8,242.8z M885.4,239.5
	c0.1-5.8-2.3-14.7-12.4-14.7c-9.2,0-13.2,8.3-13.9,14.7H885.4z"/>
</svg>
